M48
; DRILL file {KiCad 7.0.7} date Thu Oct 12 19:02:17 2023
; FORMAT={-:-/ absolute / inch / decimal}
; #@! TF.CreationDate,2023-10-12T19:02:17-04:00
; #@! TF.GenerationSoftware,Kicad,Pcbnew,7.0.7
; #@! TF.FileFunction,Plated,1,4,PTH
FMAT,2
INCH
; #@! TA.AperFunction,Plated,PTH,ViaDrill
T1C0.0157
; #@! TA.AperFunction,Plated,PTH,ComponentDrill
T2C0.0315
; #@! TA.AperFunction,Plated,PTH,ComponentDrill
T3C0.0394
%
G90
G05
T1
X4.6063Y-2.5591
X4.6457Y-3.1102
X4.6457Y-3.5433
X4.6692Y-4.5132
X4.685Y-4.0551
X4.685Y-5.0
X4.685Y-5.5118
X5.8069Y-5.6912
X5.8117Y-5.186
X5.8268Y-5.748
X5.8821Y-5.7719
X5.888Y-5.534
X5.9055Y-5.2362
X5.9487Y-5.0407
X5.9567Y-5.2638
X6.0584Y-5.8262
X6.063Y-3.937
X6.1199Y-5.0351
X6.1417Y-5.304
X6.1721Y-5.5978
X7.0866Y-4.5669
X7.1211Y-6.0305
T2
X4.8893Y-3.5438
X4.8893Y-3.8438
X4.9093Y-2.5188
X4.9093Y-2.8188
X4.9099Y-4.0634
X4.9099Y-4.3634
X4.9105Y-3.0438
X4.9105Y-3.3438
X4.9105Y-4.5815
X4.9105Y-4.8815
X4.9105Y-5.0886
X4.9105Y-5.3886
X4.9105Y-5.5938
X4.9105Y-5.8938
X4.9893Y-3.5438
X4.9893Y-3.8438
X5.0093Y-2.5188
X5.0093Y-2.8188
X5.0099Y-4.0634
X5.0099Y-4.3634
X5.0105Y-3.0438
X5.0105Y-3.3438
X5.0105Y-4.5815
X5.0105Y-4.8815
X5.0105Y-5.0886
X5.0105Y-5.3886
X5.0105Y-5.5938
X5.0105Y-5.8938
X5.0893Y-3.5438
X5.0893Y-3.8438
X5.1093Y-2.5188
X5.1093Y-2.8188
X5.1099Y-4.0634
X5.1099Y-4.3634
X5.1105Y-3.0438
X5.1105Y-3.3438
X5.1105Y-4.5815
X5.1105Y-4.8815
X5.1105Y-5.0886
X5.1105Y-5.3886
X5.1105Y-5.5938
X5.1105Y-5.8938
X5.1893Y-3.5438
X5.1893Y-3.8438
X5.2093Y-2.5188
X5.2093Y-2.8188
X5.2099Y-4.0634
X5.2099Y-4.3634
X5.2105Y-3.0438
X5.2105Y-3.3438
X5.2105Y-4.5815
X5.2105Y-4.8815
X5.2105Y-5.0886
X5.2105Y-5.3886
X5.2105Y-5.5938
X5.2105Y-5.8938
X5.2893Y-3.5438
X5.2893Y-3.8438
X5.3093Y-2.5188
X5.3093Y-2.8188
X5.3099Y-4.0634
X5.3099Y-4.3634
X5.3105Y-3.0438
X5.3105Y-3.3438
X5.3105Y-4.5815
X5.3105Y-4.8815
X5.3105Y-5.0886
X5.3105Y-5.3886
X5.3105Y-5.5938
X5.3105Y-5.8938
X5.3893Y-3.5438
X5.3893Y-3.8438
X5.4093Y-2.5188
X5.4093Y-2.8188
X5.4099Y-4.0634
X5.4099Y-4.3634
X5.4105Y-3.0438
X5.4105Y-3.3438
X5.4105Y-4.5815
X5.4105Y-4.8815
X5.4105Y-5.0886
X5.4105Y-5.3886
X5.4105Y-5.5938
X5.4105Y-5.8938
X5.4893Y-3.5438
X5.4893Y-3.8438
X5.5093Y-2.5188
X5.5093Y-2.8188
X5.5099Y-4.0634
X5.5099Y-4.3634
X5.5105Y-3.0438
X5.5105Y-3.3438
X5.5105Y-4.5815
X5.5105Y-4.8815
X5.5105Y-5.0886
X5.5105Y-5.3886
X5.5105Y-5.5938
X5.5105Y-5.8938
X5.5893Y-3.5438
X5.5893Y-3.8438
X5.6093Y-2.5188
X5.6093Y-2.8188
X5.6099Y-4.0634
X5.6099Y-4.3634
X5.6105Y-3.0438
X5.6105Y-3.3438
X5.6105Y-4.5815
X5.6105Y-4.8815
X5.6105Y-5.0886
X5.6105Y-5.3886
X5.6105Y-5.5938
X5.6105Y-5.8938
T3
X3.8093Y-2.7938
X3.8093Y-2.8938
X3.8093Y-2.9938
X3.8093Y-3.0938
X3.8093Y-3.1938
X3.8093Y-3.2938
X3.8093Y-3.3938
X3.8093Y-3.4938
X3.8093Y-3.5938
X3.8093Y-3.6938
X3.8093Y-3.7938
X3.8093Y-3.8938
X3.8093Y-3.9938
X3.8093Y-4.0938
X3.8093Y-4.1938
X3.8093Y-4.2938
X3.8093Y-4.3938
X3.8093Y-4.4938
X3.8093Y-4.5938
X3.8093Y-4.6938
X3.8093Y-4.7938
X3.8093Y-4.8938
X3.8093Y-4.9938
X3.8093Y-5.0938
X3.8093Y-5.1938
X3.8093Y-5.2938
X3.8093Y-5.3938
X3.8093Y-5.4938
X3.8093Y-5.5938
X3.8093Y-5.6938
X3.9093Y-2.7938
X3.9093Y-2.8938
X3.9093Y-2.9938
X3.9093Y-3.0938
X3.9093Y-3.1938
X3.9093Y-3.2938
X3.9093Y-3.3938
X3.9093Y-3.4938
X3.9093Y-3.5938
X3.9093Y-3.6938
X3.9093Y-3.7938
X3.9093Y-3.8938
X3.9093Y-3.9938
X3.9093Y-4.0938
X3.9093Y-4.1938
X3.9093Y-4.2938
X3.9093Y-4.3938
X3.9093Y-4.4938
X3.9093Y-4.5938
X3.9093Y-4.6938
X3.9093Y-4.7938
X3.9093Y-4.8938
X3.9093Y-4.9938
X3.9093Y-5.0938
X3.9093Y-5.1938
X3.9093Y-5.2938
X3.9093Y-5.3938
X3.9093Y-5.4938
X3.9093Y-5.5938
X3.9093Y-5.6938
X5.7579Y-2.6376
X5.7579Y-2.7376
X5.7579Y-2.8376
X5.7579Y-2.9376
X5.7579Y-3.0376
X5.7579Y-3.1376
X5.7579Y-3.2376
X5.7579Y-3.3376
X5.7579Y-3.4376
X5.7579Y-3.5376
X5.7579Y-3.6376
X5.7579Y-3.7376
X5.7579Y-3.8376
X5.7579Y-3.9376
X5.7579Y-4.0376
X5.7579Y-4.1376
X5.7579Y-4.2376
X5.7579Y-4.3376
X5.7579Y-4.4376
X5.7579Y-4.5376
X6.4579Y-2.6376
X6.4579Y-2.7376
X6.4579Y-2.8376
X6.4579Y-2.9376
X6.4579Y-3.0376
X6.4579Y-3.1376
X6.4579Y-3.2376
X6.4579Y-3.3376
X6.4579Y-3.4376
X6.4579Y-3.5376
X6.4579Y-3.6376
X6.4579Y-3.7376
X6.4579Y-3.8376
X6.4579Y-3.9376
X6.4579Y-4.0376
X6.4579Y-4.1376
X6.4579Y-4.2376
X6.4579Y-4.3376
X6.4579Y-4.4376
X6.4579Y-4.5376
X6.6985Y-3.0975
X6.6985Y-3.1975
X6.6985Y-3.2975
X6.6985Y-3.3975
X6.6985Y-3.4975
X6.6985Y-3.5975
X6.6985Y-3.6975
X6.6985Y-3.7975
X6.6985Y-3.8975
X6.6985Y-3.9975
X6.6985Y-4.0975
X6.6985Y-4.1975
X6.6985Y-4.2975
X6.6985Y-4.3975
X6.6985Y-4.4975
X6.6985Y-4.5975
X6.6985Y-4.6975
X6.6985Y-4.7975
X6.6985Y-4.8975
X6.6985Y-4.9975
X6.6985Y-5.0975
X6.6985Y-5.1975
X6.6985Y-5.2975
X6.6985Y-5.3975
X6.6985Y-5.4975
X6.6985Y-5.5975
X6.6985Y-5.6975
X6.6985Y-5.7975
X6.6985Y-5.8975
X6.6985Y-5.9975
X6.7985Y-3.0975
X6.7985Y-3.1975
X6.7985Y-3.2975
X6.7985Y-3.3975
X6.7985Y-3.4975
X6.7985Y-3.5975
X6.7985Y-3.6975
X6.7985Y-3.7975
X6.7985Y-3.8975
X6.7985Y-3.9975
X6.7985Y-4.0975
X6.7985Y-4.1975
X6.7985Y-4.2975
X6.7985Y-4.3975
X6.7985Y-4.4975
X6.7985Y-4.5975
X6.7985Y-4.6975
X6.7985Y-4.7975
X6.7985Y-4.8975
X6.7985Y-4.9975
X6.7985Y-5.0975
X6.7985Y-5.1975
X6.7985Y-5.2975
X6.7985Y-5.3975
X6.7985Y-5.4975
X6.7985Y-5.5975
X6.7985Y-5.6975
X6.7985Y-5.7975
X6.7985Y-5.8975
X6.7985Y-5.9975
T0
M30
