%TF.GenerationSoftware,KiCad,Pcbnew,7.0.7*%
%TF.CreationDate,2023-10-12T19:01:10-04:00*%
%TF.ProjectId,PCB_final,5043425f-6669-46e6-916c-2e6b69636164,rev?*%
%TF.SameCoordinates,Original*%
%TF.FileFunction,Soldermask,Bot*%
%TF.FilePolarity,Negative*%
%FSLAX46Y46*%
G04 Gerber Fmt 4.6, Leading zero omitted, Abs format (unit mm)*
G04 Created by KiCad (PCBNEW 7.0.7) date 2023-10-12 19:01:10*
%MOMM*%
%LPD*%
G01*
G04 APERTURE LIST*
%ADD10C,2.200000*%
%ADD11R,1.600000X1.600000*%
%ADD12O,1.600000X1.600000*%
%ADD13R,1.700000X1.700000*%
%ADD14O,1.700000X1.700000*%
G04 APERTURE END LIST*
D10*
%TO.C,REF\u002A\u002A*%
X178000000Y-65000000D03*
%TD*%
%TO.C,REF\u002A\u002A*%
X160000000Y-151000000D03*
%TD*%
%TO.C,REF\u002A\u002A*%
X98000000Y-151000000D03*
%TD*%
%TO.C,REF\u002A\u002A*%
X98000000Y-65000000D03*
%TD*%
D11*
%TO.C,U2*%
X124725708Y-84931727D03*
D12*
X127265708Y-84931727D03*
X129805708Y-84931727D03*
X132345708Y-84931727D03*
X134885708Y-84931727D03*
X137425708Y-84931727D03*
X139965708Y-84931727D03*
X142505708Y-84931727D03*
X142505708Y-77311727D03*
X139965708Y-77311727D03*
X137425708Y-77311727D03*
X134885708Y-77311727D03*
X132345708Y-77311727D03*
X129805708Y-77311727D03*
X127265708Y-77311727D03*
X124725708Y-77311727D03*
%TD*%
D13*
%TO.C,J5*%
X146250708Y-115255141D03*
D14*
X146250708Y-112715141D03*
X146250708Y-110175141D03*
X146250708Y-107635141D03*
X146250708Y-105095141D03*
X146250708Y-102555141D03*
X146250708Y-100015141D03*
X146250708Y-97475141D03*
X146250708Y-94935141D03*
X146250708Y-92395141D03*
X146250708Y-89855141D03*
X146250708Y-87315141D03*
X146250708Y-84775141D03*
X146250708Y-82235141D03*
X146250708Y-79695141D03*
X146250708Y-77155141D03*
X146250708Y-74615141D03*
X146250708Y-72075141D03*
X146250708Y-69535141D03*
X146250708Y-66995141D03*
%TD*%
D13*
%TO.C,J1*%
X96755708Y-70961727D03*
D14*
X99295708Y-70961727D03*
X96755708Y-73501727D03*
X99295708Y-73501727D03*
X96755708Y-76041727D03*
X99295708Y-76041727D03*
X96755708Y-78581727D03*
X99295708Y-78581727D03*
X96755708Y-81121727D03*
X99295708Y-81121727D03*
X96755708Y-83661727D03*
X99295708Y-83661727D03*
X96755708Y-86201727D03*
X99295708Y-86201727D03*
X96755708Y-88741727D03*
X99295708Y-88741727D03*
X96755708Y-91281727D03*
X99295708Y-91281727D03*
X96755708Y-93821727D03*
X99295708Y-93821727D03*
X96755708Y-96361727D03*
X99295708Y-96361727D03*
X96755708Y-98901727D03*
X99295708Y-98901727D03*
X96755708Y-101441727D03*
X99295708Y-101441727D03*
X96755708Y-103981727D03*
X99295708Y-103981727D03*
X96755708Y-106521727D03*
X99295708Y-106521727D03*
X96755708Y-109061727D03*
X99295708Y-109061727D03*
X96755708Y-111601727D03*
X99295708Y-111601727D03*
X96755708Y-114141727D03*
X99295708Y-114141727D03*
X96755708Y-116681727D03*
X99295708Y-116681727D03*
X96755708Y-119221727D03*
X99295708Y-119221727D03*
X96755708Y-121761727D03*
X99295708Y-121761727D03*
X96755708Y-124301727D03*
X99295708Y-124301727D03*
X96755708Y-126841727D03*
X99295708Y-126841727D03*
X96755708Y-129381727D03*
X99295708Y-129381727D03*
X96755708Y-131921727D03*
X99295708Y-131921727D03*
X96755708Y-134461727D03*
X99295708Y-134461727D03*
X96755708Y-137001727D03*
X99295708Y-137001727D03*
X96755708Y-139541727D03*
X99295708Y-139541727D03*
X96755708Y-142081727D03*
X99295708Y-142081727D03*
X96755708Y-144621727D03*
X99295708Y-144621727D03*
%TD*%
D11*
%TO.C,U6*%
X124725708Y-136870022D03*
D12*
X127265708Y-136870022D03*
X129805708Y-136870022D03*
X132345708Y-136870022D03*
X134885708Y-136870022D03*
X137425708Y-136870022D03*
X139965708Y-136870022D03*
X142505708Y-136870022D03*
X142505708Y-129250022D03*
X139965708Y-129250022D03*
X137425708Y-129250022D03*
X134885708Y-129250022D03*
X132345708Y-129250022D03*
X129805708Y-129250022D03*
X127265708Y-129250022D03*
X124725708Y-129250022D03*
%TD*%
D11*
%TO.C,U3*%
X124187708Y-97631727D03*
D12*
X126727708Y-97631727D03*
X129267708Y-97631727D03*
X131807708Y-97631727D03*
X134347708Y-97631727D03*
X136887708Y-97631727D03*
X139427708Y-97631727D03*
X141967708Y-97631727D03*
X141967708Y-90011727D03*
X139427708Y-90011727D03*
X136887708Y-90011727D03*
X134347708Y-90011727D03*
X131807708Y-90011727D03*
X129267708Y-90011727D03*
X126727708Y-90011727D03*
X124187708Y-90011727D03*
%TD*%
D11*
%TO.C,U7*%
X124725708Y-149701727D03*
D12*
X127265708Y-149701727D03*
X129805708Y-149701727D03*
X132345708Y-149701727D03*
X134885708Y-149701727D03*
X137425708Y-149701727D03*
X139965708Y-149701727D03*
X142505708Y-149701727D03*
X142505708Y-142081727D03*
X139965708Y-142081727D03*
X137425708Y-142081727D03*
X134885708Y-142081727D03*
X132345708Y-142081727D03*
X129805708Y-142081727D03*
X127265708Y-142081727D03*
X124725708Y-142081727D03*
%TD*%
D11*
%TO.C,U4*%
X124710708Y-110829727D03*
D12*
X127250708Y-110829727D03*
X129790708Y-110829727D03*
X132330708Y-110829727D03*
X134870708Y-110829727D03*
X137410708Y-110829727D03*
X139950708Y-110829727D03*
X142490708Y-110829727D03*
X142490708Y-103209727D03*
X139950708Y-103209727D03*
X137410708Y-103209727D03*
X134870708Y-103209727D03*
X132330708Y-103209727D03*
X129790708Y-103209727D03*
X127250708Y-103209727D03*
X124710708Y-103209727D03*
%TD*%
D13*
%TO.C,J2*%
X172681328Y-152337397D03*
D14*
X170141328Y-152337397D03*
X172681328Y-149797397D03*
X170141328Y-149797397D03*
X172681328Y-147257397D03*
X170141328Y-147257397D03*
X172681328Y-144717397D03*
X170141328Y-144717397D03*
X172681328Y-142177397D03*
X170141328Y-142177397D03*
X172681328Y-139637397D03*
X170141328Y-139637397D03*
X172681328Y-137097397D03*
X170141328Y-137097397D03*
X172681328Y-134557397D03*
X170141328Y-134557397D03*
X172681328Y-132017397D03*
X170141328Y-132017397D03*
X172681328Y-129477397D03*
X170141328Y-129477397D03*
X172681328Y-126937397D03*
X170141328Y-126937397D03*
X172681328Y-124397397D03*
X170141328Y-124397397D03*
X172681328Y-121857397D03*
X170141328Y-121857397D03*
X172681328Y-119317397D03*
X170141328Y-119317397D03*
X172681328Y-116777397D03*
X170141328Y-116777397D03*
X172681328Y-114237397D03*
X170141328Y-114237397D03*
X172681328Y-111697397D03*
X170141328Y-111697397D03*
X172681328Y-109157397D03*
X170141328Y-109157397D03*
X172681328Y-106617397D03*
X170141328Y-106617397D03*
X172681328Y-104077397D03*
X170141328Y-104077397D03*
X172681328Y-101537397D03*
X170141328Y-101537397D03*
X172681328Y-98997397D03*
X170141328Y-98997397D03*
X172681328Y-96457397D03*
X170141328Y-96457397D03*
X172681328Y-93917397D03*
X170141328Y-93917397D03*
X172681328Y-91377397D03*
X170141328Y-91377397D03*
X172681328Y-88837397D03*
X170141328Y-88837397D03*
X172681328Y-86297397D03*
X170141328Y-86297397D03*
X172681328Y-83757397D03*
X170141328Y-83757397D03*
X172681328Y-81217397D03*
X170141328Y-81217397D03*
X172681328Y-78677397D03*
X170141328Y-78677397D03*
%TD*%
D11*
%TO.C,U1*%
X124695708Y-71596727D03*
D12*
X127235708Y-71596727D03*
X129775708Y-71596727D03*
X132315708Y-71596727D03*
X134855708Y-71596727D03*
X137395708Y-71596727D03*
X139935708Y-71596727D03*
X142475708Y-71596727D03*
X142475708Y-63976727D03*
X139935708Y-63976727D03*
X137395708Y-63976727D03*
X134855708Y-63976727D03*
X132315708Y-63976727D03*
X129775708Y-63976727D03*
X127235708Y-63976727D03*
X124695708Y-63976727D03*
%TD*%
D13*
%TO.C,J6*%
X164030708Y-115255141D03*
D14*
X164030708Y-112715141D03*
X164030708Y-110175141D03*
X164030708Y-107635141D03*
X164030708Y-105095141D03*
X164030708Y-102555141D03*
X164030708Y-100015141D03*
X164030708Y-97475141D03*
X164030708Y-94935141D03*
X164030708Y-92395141D03*
X164030708Y-89855141D03*
X164030708Y-87315141D03*
X164030708Y-84775141D03*
X164030708Y-82235141D03*
X164030708Y-79695141D03*
X164030708Y-77155141D03*
X164030708Y-74615141D03*
X164030708Y-72075141D03*
X164030708Y-69535141D03*
X164030708Y-66995141D03*
%TD*%
D11*
%TO.C,U5*%
X124725708Y-123989585D03*
D12*
X127265708Y-123989585D03*
X129805708Y-123989585D03*
X132345708Y-123989585D03*
X134885708Y-123989585D03*
X137425708Y-123989585D03*
X139965708Y-123989585D03*
X142505708Y-123989585D03*
X142505708Y-116369585D03*
X139965708Y-116369585D03*
X137425708Y-116369585D03*
X134885708Y-116369585D03*
X132345708Y-116369585D03*
X129805708Y-116369585D03*
X127265708Y-116369585D03*
X124725708Y-116369585D03*
%TD*%
M02*
