%TF.GenerationSoftware,KiCad,Pcbnew,7.0.7*%
%TF.CreationDate,2023-10-12T19:01:10-04:00*%
%TF.ProjectId,PCB_final,5043425f-6669-46e6-916c-2e6b69636164,rev?*%
%TF.SameCoordinates,Original*%
%TF.FileFunction,Paste,Top*%
%TF.FilePolarity,Positive*%
%FSLAX46Y46*%
G04 Gerber Fmt 4.6, Leading zero omitted, Abs format (unit mm)*
G04 Created by KiCad (PCBNEW 7.0.7) date 2023-10-12 19:01:10*
%MOMM*%
%LPD*%
G01*
G04 APERTURE LIST*
G04 Aperture macros list*
%AMRoundRect*
0 Rectangle with rounded corners*
0 $1 Rounding radius*
0 $2 $3 $4 $5 $6 $7 $8 $9 X,Y pos of 4 corners*
0 Add a 4 corners polygon primitive as box body*
4,1,4,$2,$3,$4,$5,$6,$7,$8,$9,$2,$3,0*
0 Add four circle primitives for the rounded corners*
1,1,$1+$1,$2,$3*
1,1,$1+$1,$4,$5*
1,1,$1+$1,$6,$7*
1,1,$1+$1,$8,$9*
0 Add four rect primitives between the rounded corners*
20,1,$1+$1,$2,$3,$4,$5,0*
20,1,$1+$1,$4,$5,$6,$7,0*
20,1,$1+$1,$6,$7,$8,$9,0*
20,1,$1+$1,$8,$9,$2,$3,0*%
G04 Aperture macros list end*
%ADD10RoundRect,0.225000X0.225000X0.250000X-0.225000X0.250000X-0.225000X-0.250000X0.225000X-0.250000X0*%
%ADD11RoundRect,0.225000X-0.225000X-0.375000X0.225000X-0.375000X0.225000X0.375000X-0.225000X0.375000X0*%
%ADD12RoundRect,0.200000X-0.200000X-0.275000X0.200000X-0.275000X0.200000X0.275000X-0.200000X0.275000X0*%
%ADD13RoundRect,0.225000X0.250000X-0.225000X0.250000X0.225000X-0.250000X0.225000X-0.250000X-0.225000X0*%
%ADD14R,1.200000X0.400000*%
%ADD15RoundRect,0.150000X0.512500X0.150000X-0.512500X0.150000X-0.512500X-0.150000X0.512500X-0.150000X0*%
G04 APERTURE END LIST*
D10*
%TO.C,C8*%
X122168708Y-106429455D03*
X120618708Y-106429455D03*
%TD*%
D11*
%TO.C,D35*%
X102725708Y-86201727D03*
X106025708Y-86201727D03*
%TD*%
%TO.C,D36*%
X102725708Y-88741727D03*
X106025708Y-88741727D03*
%TD*%
%TO.C,D2*%
X107805708Y-72231727D03*
X111105708Y-72231727D03*
%TD*%
D12*
%TO.C,R3*%
X175928328Y-149797397D03*
X177578328Y-149797397D03*
%TD*%
D11*
%TO.C,D54*%
X102725708Y-134461727D03*
X106025708Y-134461727D03*
%TD*%
D10*
%TO.C,C9*%
X121787186Y-116054020D03*
X120237186Y-116054020D03*
%TD*%
D11*
%TO.C,D18*%
X107805708Y-112871727D03*
X111105708Y-112871727D03*
%TD*%
%TO.C,D45*%
X102725708Y-111601727D03*
X106025708Y-111601727D03*
%TD*%
%TO.C,D25*%
X107805708Y-130651727D03*
X111105708Y-130651727D03*
%TD*%
%TO.C,D15*%
X107805708Y-105251727D03*
X111105708Y-105251727D03*
%TD*%
D12*
%TO.C,R13*%
X175928328Y-137097397D03*
X177578328Y-137097397D03*
%TD*%
D10*
%TO.C,C14*%
X121787186Y-143780959D03*
X120237186Y-143780959D03*
%TD*%
D11*
%TO.C,D11*%
X107805708Y-95091727D03*
X111105708Y-95091727D03*
%TD*%
%TO.C,D31*%
X102725708Y-76041727D03*
X106025708Y-76041727D03*
%TD*%
%TO.C,D55*%
X102725708Y-137001727D03*
X106025708Y-137001727D03*
%TD*%
D12*
%TO.C,R18*%
X179226682Y-130831965D03*
X180876682Y-130831965D03*
%TD*%
D11*
%TO.C,D10*%
X107805708Y-92551727D03*
X111105708Y-92551727D03*
%TD*%
%TO.C,D30*%
X102725708Y-73501727D03*
X106025708Y-73501727D03*
%TD*%
%TO.C,D43*%
X102725708Y-106521727D03*
X106025708Y-106521727D03*
%TD*%
D12*
%TO.C,R27*%
X175928328Y-119317397D03*
X177578328Y-119317397D03*
%TD*%
%TO.C,R20*%
X179226682Y-128291965D03*
X180876682Y-128291965D03*
%TD*%
D11*
%TO.C,D56*%
X106025708Y-139541727D03*
X102725708Y-139541727D03*
%TD*%
D10*
%TO.C,C10*%
X121787186Y-117926861D03*
X120237186Y-117926861D03*
%TD*%
D12*
%TO.C,R25*%
X175928328Y-121857397D03*
X177578328Y-121857397D03*
%TD*%
%TO.C,R9*%
X175928328Y-142177397D03*
X177578328Y-142177397D03*
%TD*%
D11*
%TO.C,D19*%
X107805708Y-115411727D03*
X111105708Y-115411727D03*
%TD*%
%TO.C,D9*%
X107805708Y-90011727D03*
X111105708Y-90011727D03*
%TD*%
D12*
%TO.C,R26*%
X179226682Y-120671965D03*
X180876682Y-120671965D03*
%TD*%
D10*
%TO.C,C2*%
X121660708Y-65881727D03*
X120110708Y-65881727D03*
%TD*%
D12*
%TO.C,R24*%
X179226682Y-123211965D03*
X180876682Y-123211965D03*
%TD*%
D10*
%TO.C,C16*%
X151058528Y-129294598D03*
X149508528Y-129294598D03*
%TD*%
D12*
%TO.C,R11*%
X175928328Y-139637397D03*
X177578328Y-139637397D03*
%TD*%
D10*
%TO.C,C7*%
X122168708Y-104489727D03*
X120618708Y-104489727D03*
%TD*%
%TO.C,C5*%
X121630708Y-91108373D03*
X120080708Y-91108373D03*
%TD*%
D11*
%TO.C,D8*%
X107805708Y-87471727D03*
X111105708Y-87471727D03*
%TD*%
%TO.C,D44*%
X102725708Y-109061727D03*
X106025708Y-109061727D03*
%TD*%
D12*
%TO.C,R4*%
X180876682Y-148611965D03*
X179226682Y-148611965D03*
%TD*%
%TO.C,R14*%
X179226682Y-135911965D03*
X180876682Y-135911965D03*
%TD*%
D11*
%TO.C,D42*%
X102725708Y-103981727D03*
X106025708Y-103981727D03*
%TD*%
D13*
%TO.C,C17*%
X159000000Y-103775000D03*
X159000000Y-102225000D03*
%TD*%
D12*
%TO.C,R28*%
X179226682Y-118131965D03*
X180876682Y-118131965D03*
%TD*%
D11*
%TO.C,D32*%
X102725708Y-78581727D03*
X106025708Y-78581727D03*
%TD*%
D14*
%TO.C,U9*%
X158517328Y-132461897D03*
X158517328Y-131826897D03*
X158517328Y-131191897D03*
X158517328Y-130556897D03*
X158517328Y-129921897D03*
X158517328Y-129286897D03*
X158517328Y-128651897D03*
X158517328Y-128016897D03*
X158517328Y-127381897D03*
X158517328Y-126746897D03*
X158517328Y-126111897D03*
X158517328Y-125476897D03*
X153317328Y-125476897D03*
X153317328Y-126111897D03*
X153317328Y-126746897D03*
X153317328Y-127381897D03*
X153317328Y-128016897D03*
X153317328Y-128651897D03*
X153317328Y-129286897D03*
X153317328Y-129921897D03*
X153317328Y-130556897D03*
X153317328Y-131191897D03*
X153317328Y-131826897D03*
X153317328Y-132461897D03*
%TD*%
D11*
%TO.C,D5*%
X107805708Y-79851727D03*
X111105708Y-79851727D03*
%TD*%
D12*
%TO.C,R2*%
X180876682Y-151151965D03*
X179226682Y-151151965D03*
%TD*%
D11*
%TO.C,D28*%
X107805708Y-138271727D03*
X111105708Y-138271727D03*
%TD*%
D10*
%TO.C,C4*%
X122168708Y-80693704D03*
X120618708Y-80693704D03*
%TD*%
D11*
%TO.C,D47*%
X102725708Y-116681727D03*
X106025708Y-116681727D03*
%TD*%
%TO.C,D6*%
X107805708Y-82391727D03*
X111105708Y-82391727D03*
%TD*%
%TO.C,D14*%
X107805708Y-102711727D03*
X111105708Y-102711727D03*
%TD*%
%TO.C,D21*%
X107805708Y-120491727D03*
X111105708Y-120491727D03*
%TD*%
D10*
%TO.C,C12*%
X121787186Y-131056588D03*
X120237186Y-131056588D03*
%TD*%
D11*
%TO.C,D34*%
X102725708Y-83661727D03*
X106025708Y-83661727D03*
%TD*%
D12*
%TO.C,R21*%
X175928328Y-126937397D03*
X177578328Y-126937397D03*
%TD*%
D11*
%TO.C,D52*%
X102725708Y-129381727D03*
X106025708Y-129381727D03*
%TD*%
%TO.C,D53*%
X102725708Y-131921727D03*
X106025708Y-131921727D03*
%TD*%
%TO.C,D3*%
X107805708Y-74771727D03*
X111105708Y-74771727D03*
%TD*%
%TO.C,D22*%
X107805708Y-123031727D03*
X111105708Y-123031727D03*
%TD*%
D10*
%TO.C,C3*%
X122168708Y-78835727D03*
X120618708Y-78835727D03*
%TD*%
D11*
%TO.C,D17*%
X107805708Y-110331727D03*
X111105708Y-110331727D03*
%TD*%
D10*
%TO.C,C6*%
X121630708Y-92892031D03*
X120080708Y-92892031D03*
%TD*%
D12*
%TO.C,R10*%
X179226682Y-140991965D03*
X180876682Y-140991965D03*
%TD*%
D11*
%TO.C,D4*%
X107805708Y-77311727D03*
X111105708Y-77311727D03*
%TD*%
D12*
%TO.C,R12*%
X179226682Y-138451965D03*
X180876682Y-138451965D03*
%TD*%
D11*
%TO.C,D40*%
X102725708Y-98901727D03*
X106025708Y-98901727D03*
%TD*%
%TO.C,D46*%
X102725708Y-114141727D03*
X106025708Y-114141727D03*
%TD*%
%TO.C,D29*%
X102725708Y-70961727D03*
X106025708Y-70961727D03*
%TD*%
D10*
%TO.C,C15*%
X152064438Y-142825064D03*
X150514438Y-142825064D03*
%TD*%
D11*
%TO.C,D26*%
X107805708Y-133191727D03*
X111105708Y-133191727D03*
%TD*%
D12*
%TO.C,R5*%
X175928328Y-147257397D03*
X177578328Y-147257397D03*
%TD*%
%TO.C,R7*%
X175928328Y-144717397D03*
X177578328Y-144717397D03*
%TD*%
D15*
%TO.C,U10*%
X155371242Y-103768391D03*
X155371242Y-102818391D03*
X155371242Y-101868391D03*
X153096242Y-101868391D03*
X153096242Y-103768391D03*
%TD*%
D11*
%TO.C,D48*%
X102725708Y-119221727D03*
X106025708Y-119221727D03*
%TD*%
%TO.C,D41*%
X102725708Y-101441727D03*
X106025708Y-101441727D03*
%TD*%
D10*
%TO.C,C11*%
X121787186Y-128960790D03*
X120237186Y-128960790D03*
%TD*%
D11*
%TO.C,D49*%
X102725708Y-121761727D03*
X106025708Y-121761727D03*
%TD*%
D12*
%TO.C,R17*%
X175928328Y-132017397D03*
X177578328Y-132017397D03*
%TD*%
D11*
%TO.C,D12*%
X107805708Y-97659742D03*
X111105708Y-97659742D03*
%TD*%
%TO.C,D37*%
X102725708Y-91281727D03*
X106025708Y-91281727D03*
%TD*%
D12*
%TO.C,R16*%
X179226682Y-133371965D03*
X180876682Y-133371965D03*
%TD*%
%TO.C,R23*%
X175928328Y-124397397D03*
X177578328Y-124397397D03*
%TD*%
D11*
%TO.C,D38*%
X102725708Y-93821727D03*
X106025708Y-93821727D03*
%TD*%
%TO.C,D23*%
X107805708Y-125571727D03*
X111105708Y-125571727D03*
%TD*%
D10*
%TO.C,C13*%
X120237186Y-141752048D03*
X121787186Y-141752048D03*
%TD*%
D14*
%TO.C,U8*%
X159930940Y-145990940D03*
X159930940Y-145355940D03*
X159930940Y-144720940D03*
X159930940Y-144085940D03*
X159930940Y-143450940D03*
X159930940Y-142815940D03*
X159930940Y-142180940D03*
X159930940Y-141545940D03*
X159930940Y-140910940D03*
X159930940Y-140275940D03*
X159930940Y-139640940D03*
X159930940Y-139005940D03*
X154730940Y-139005940D03*
X154730940Y-139640940D03*
X154730940Y-140275940D03*
X154730940Y-140910940D03*
X154730940Y-141545940D03*
X154730940Y-142180940D03*
X154730940Y-142815940D03*
X154730940Y-143450940D03*
X154730940Y-144085940D03*
X154730940Y-144720940D03*
X154730940Y-145355940D03*
X154730940Y-145990940D03*
%TD*%
D11*
%TO.C,D20*%
X107805708Y-117951727D03*
X111105708Y-117951727D03*
%TD*%
D12*
%TO.C,R1*%
X175928328Y-152337397D03*
X177578328Y-152337397D03*
%TD*%
D11*
%TO.C,D7*%
X107805708Y-84931727D03*
X111105708Y-84931727D03*
%TD*%
%TO.C,D39*%
X102725708Y-96361727D03*
X106025708Y-96361727D03*
%TD*%
D12*
%TO.C,R8*%
X179226682Y-143531965D03*
X180876682Y-143531965D03*
%TD*%
D11*
%TO.C,D51*%
X102725708Y-126841727D03*
X106025708Y-126841727D03*
%TD*%
%TO.C,D13*%
X111105708Y-100171727D03*
X107805708Y-100171727D03*
%TD*%
D12*
%TO.C,R19*%
X175928328Y-129477397D03*
X177578328Y-129477397D03*
%TD*%
D10*
%TO.C,C1*%
X121660708Y-63976727D03*
X120110708Y-63976727D03*
%TD*%
D11*
%TO.C,D27*%
X107805708Y-135731727D03*
X111105708Y-135731727D03*
%TD*%
%TO.C,D16*%
X107805708Y-107791727D03*
X111105708Y-107791727D03*
%TD*%
D12*
%TO.C,R15*%
X175928328Y-134557397D03*
X177578328Y-134557397D03*
%TD*%
%TO.C,R29*%
X153175000Y-106948391D03*
X154825000Y-106948391D03*
%TD*%
D11*
%TO.C,D33*%
X102725708Y-81121727D03*
X106025708Y-81121727D03*
%TD*%
%TO.C,D50*%
X102725708Y-124301727D03*
X106025708Y-124301727D03*
%TD*%
%TO.C,D24*%
X107805708Y-128111727D03*
X111105708Y-128111727D03*
%TD*%
D12*
%TO.C,R22*%
X179226682Y-125751965D03*
X180876682Y-125751965D03*
%TD*%
D11*
%TO.C,D1*%
X107805708Y-69691727D03*
X111105708Y-69691727D03*
%TD*%
D12*
%TO.C,R6*%
X179226682Y-146071965D03*
X180876682Y-146071965D03*
%TD*%
M02*
